# xmcd
#
# Track frame offsets:
#	150
#	25845
#	49697
#	75402
#
# Disc length: 1290 seconds
#
# Revision: 1
# Processed by: cddbd v1.5.2PL0 Copyright (c) Steve Scherf et al.
# Submitted via: audiograbber 1.83.01
#
DISCID=21050804
DTITLE=VARIOS - DISCO BANDA
DYEAR=1900
DGENRE=Other
TTITLE0=BANDA ZETA - LA NIÑA FRESA
TTITLE1=BANDA MACHOS - LA CULEBRA
TTITLE2=BANDA PEQUEÑOS MUSICAL - LA CUCA
TTITLE3=BANDA VIENTO NEGRO - PACHUCHO BAILARIN
EXTD=
EXTT0=
EXTT1=
EXTT2=
EXTT3=
PLAYORDER=
